Input #0, mov,mp4,m4a,3gp,3g2,mj2, from '/home/hbattu/projects/huberman-gpt/huberman-audio/mp3/tmphk01xiow.mp4':
  Metadata:
    major_brand     : dash
    minor_version   : 0
    compatible_brands: iso6mp41
    creation_time   : 2022-03-25T01:16:01.000000Z
  Duration: 01:58:55.82, start: 0.000000, bitrate: 129 kb/s
    Stream #0:0(eng): Audio: aac (LC) (mp4a / 0x6134706D), 44100 Hz, stereo, fltp, 0 kb/s (default)
    Metadata:
      creation_time   : 2022-03-25T01:16:01.000000Z
      handler_name    : ISO Media file produced by Google Inc.
Stream mapping:
  Stream #0:0 -> #0:0 (aac (native) -> mp3 (libmp3lame))
Press [q] to stop, [?] for help
[graph_0_in_0_0 @ 0x564f4757f900] tb:1/44100 samplefmt:fltp samplerate:44100 chlayout:0x3
Output #0, mp3, to '../huberman-audio/mp3/VAEzZeaV5zM.mp3':
  Metadata:
    major_brand     : dash
    minor_version   : 0
    compatible_brands: iso6mp41
    TSSE            : Lavf58.29.100
    Stream #0:0(eng): Audio: mp3 (libmp3lame), 44100 Hz, stereo, fltp, delay 1105 (default)
    Metadata:
      creation_time   : 2022-03-25T01:16:01.000000Z
      handler_name    : ISO Media file produced by Google Inc.
      encoder         : Lavc58.54.100 libmp3lame
No more output streams to write to, finishing.
size=  111498kB time=01:58:55.81 bitrate= 128.0kbits/s speed=97.1x    
[AVIOContext @ 0x564f47544900] Statistics: 0 seeks, 147 writeouts
video:0kB audio:111498kB subtitle:0kB other streams:0kB global headers:0kB muxing overhead: 0.000303%
Input file #0 (/home/hbattu/projects/huberman-gpt/huberman-audio/mp3/tmphk01xiow.mp4):
  Input stream #0:0 (audio): 307314 packets read (114173074 bytes); 307314 frames decoded (314689536 samples); 
  Total: 307314 packets (114173074 bytes) demuxed
Output file #0 (../huberman-audio/mp3/VAEzZeaV5zM.mp3):
  Output stream #0:0 (audio): 273168 frames encoded (314689536 samples); 273169 packets muxed (114173492 bytes); 
  Total: 273169 packets (114173492 bytes) muxed
[AVIOContext @ 0x564f4756c780] Statistics: 2 seeks, 437 writeouts
[AVIOContext @ 0x564f4754d880] Statistics: 115485934 bytes read, 0 seeks
